<svg width="16" height="16" viewBox="0 0 16 16" fill="none" xmlns="http://www.w3.org/2000/svg">
<rect width="16" height="16" rx="3" fill="#E2E8F0"/>
<path d="M3.024 11.056C2.91733 11.056 2.83467 11.0267 2.776 10.968C2.72267 10.904 2.696 10.8187 2.696 10.712V5.648C2.696 5.536 2.72267 5.45067 2.776 5.392C2.83467 5.33333 2.91733 5.304 3.024 5.304C3.13067 5.304 3.21067 5.33333 3.264 5.392C3.32267 5.45067 3.352 5.536 3.352 5.648V7.856H6.736V5.648C6.736 5.536 6.76267 5.45067 6.816 5.392C6.87467 5.33333 6.95733 5.304 7.064 5.304C7.17067 5.304 7.25067 5.33333 7.304 5.392C7.36267 5.45067 7.392 5.536 7.392 5.648V10.712C7.392 10.8187 7.36267 10.904 7.304 10.968C7.25067 11.0267 7.17067 11.056 7.064 11.056C6.95733 11.056 6.87467 11.0267 6.816 10.968C6.76267 10.904 6.736 10.8187 6.736 10.712V8.424H3.352V10.712C3.352 10.8187 3.32533 10.904 3.272 10.968C3.21867 11.0267 3.136 11.056 3.024 11.056ZM8.66194 11.056C8.5766 11.056 8.50727 11.0373 8.45394 11C8.40594 10.9573 8.3766 10.904 8.36594 10.84C8.3606 10.7707 8.3766 10.6933 8.41394 10.608L10.6139 5.6C10.6619 5.49333 10.7179 5.41867 10.7819 5.376C10.8513 5.328 10.9259 5.304 11.0059 5.304C11.0859 5.304 11.1579 5.328 11.2219 5.376C11.2913 5.41867 11.3473 5.49333 11.3899 5.6L13.5979 10.608C13.6406 10.6933 13.6566 10.7707 13.6459 10.84C13.6406 10.9093 13.6139 10.9627 13.5659 11C13.5179 11.0373 13.4513 11.056 13.3659 11.056C13.2699 11.056 13.1926 11.032 13.1339 10.984C13.0753 10.9307 13.0273 10.856 12.9899 10.76L12.3979 9.392L12.7179 9.56H9.27794L9.60594 9.392L9.02194 10.76C8.97394 10.8613 8.92327 10.936 8.86994 10.984C8.8166 11.032 8.74727 11.056 8.66194 11.056ZM10.9979 6.128L9.70994 9.16L9.51794 9.008H12.4779L12.3019 9.16L11.0139 6.128H10.9979Z" fill="#086F83"/>
</svg>
